<?xml version="1.0" standalone="no"?>
<!DOCTYPE svg PUBLIC "-//W3C//DTD SVG 20010904//EN"
 "http://www.w3.org/TR/2001/REC-SVG-20010904/DTD/svg10.dtd">
<svg version="1.0" xmlns="http://www.w3.org/2000/svg"
 width="241.000000pt" height="241.000000pt" viewBox="0 0 241.000000 241.000000"
 preserveAspectRatio="xMidYMid meet">
<metadata>
Created by potrace 1.11, written by Peter Selinger 2001-2013
</metadata>
<g transform="translate(0.000000,241.000000) scale(0.100000,-0.100000)"
fill="#000000" stroke="none">
<path d="M1193 1816 c6 -16 5 -17 -8 -6 -12 10 -15 10 -15 -4 0 -9 -5 -16 -11
-16 -5 0 -7 5 -4 10 10 16 -1 11 -16 -7 -10 -11 -10 -14 -1 -9 6 4 12 2 12 -3
0 -6 -7 -11 -16 -11 -13 0 -14 -3 -5 -14 10 -12 8 -13 -9 -9 -16 4 -19 2 -14
-11 4 -11 1 -16 -11 -16 -12 0 -15 -5 -11 -17 4 -10 4 -14 0 -10 -4 4 -13 -1
-21 -11 -9 -10 -12 -11 -7 -2 4 8 4 12 0 8 -4 -3 -8 -10 -8 -15 0 -4 -9 -14
-18 -20 -10 -7 -17 -20 -16 -30 3 -20 -25 -52 -39 -44 -5 2 -4 -3 4 -12 9 -12
10 -17 2 -17 -7 0 -10 -3 -8 -7 5 -9 -24 -37 -42 -41 -7 -1 -9 2 -5 9 5 9 2
10 -10 6 -10 -4 -23 1 -33 13 -9 10 -20 17 -25 14 -4 -3 -8 0 -8 7 0 9 -3 9
-14 0 -12 -10 -14 -8 -10 11 2 13 2 18 -1 12 -4 -8 -17 -8 -45 2 -22 8 -47 11
-56 7 -13 -5 -15 -3 -9 7 6 10 4 12 -8 7 -10 -4 -14 -2 -11 7 3 7 -2 13 -10
13 -8 0 -13 -5 -12 -11 2 -6 1 -8 -2 -3 -2 4 -13 12 -24 18 -18 10 -20 9 -14
-7 7 -17 6 -17 -14 1 -15 14 -20 15 -20 4 0 -12 -2 -12 -9 0 -7 10 -13 11 -30
2 -11 -7 -21 -14 -21 -17 0 -3 4 -3 9 0 5 4 7 -12 4 -36 -4 -24 -10 -45 -15
-46 -5 -2 -3 -11 4 -20 10 -12 10 -14 1 -8 -7 4 -13 3 -13 -3 0 -5 6 -12 13
-15 9 -5 9 -7 -1 -12 -10 -5 -10 -9 0 -22 10 -12 10 -14 1 -8 -7 4 -13 2 -13
-3 0 -6 5 -11 11 -11 8 0 8 -4 0 -14 -8 -10 -9 -16 -1 -21 6 -3 7 -12 3 -18
-11 -18 -11 -47 0 -47 5 0 4 -6 -2 -14 -9 -11 -9 -16 0 -22 8 -5 9 -3 4 6 -5
9 -4 11 3 6 7 -4 8 -15 3 -29 -5 -13 -5 -30 0 -39 7 -13 4 -18 -11 -23 -11 -4
-17 -11 -14 -17 4 -5 -6 -2 -22 8 -15 11 -25 14 -21 8 4 -8 -4 -11 -26 -10
-39 3 -59 -3 -51 -15 3 -5 -2 -6 -11 -3 -8 4 -22 1 -30 -6 -8 -6 -20 -8 -27
-4 -8 5 -8 1 2 -11 14 -17 14 -18 -8 -6 -20 11 -26 8 -24 -10 1 -4 -12 -5 -29
-3 -18 2 -28 0 -24 -6 3 -6 1 -10 -5 -10 -6 0 -8 -6 -4 -12 5 -10 4 -10 -6 -1
-16 15 -40 6 -40 -16 0 -12 -2 -13 -9 -3 -6 10 -10 8 -14 -8 -3 -14 1 -28 13
-40 13 -13 15 -20 7 -24 -7 -2 -2 -8 11 -12 17 -5 20 -10 12 -19 -8 -10 -6
-17 10 -28 12 -8 22 -24 23 -35 0 -11 4 -19 8 -16 4 2 13 -4 20 -13 10 -11 10
-14 2 -9 -9 5 -11 2 -7 -8 3 -8 12 -12 19 -10 10 4 13 -2 11 -21 -3 -19 0 -23
7 -16 14 14 30 14 22 1 -3 -5 -1 -10 4 -10 6 0 11 -6 11 -14 0 -8 5 -18 12
-22 6 -4 8 -3 5 3 -3 5 0 10 7 10 8 0 12 -6 10 -12 -3 -7 11 -26 30 -43 19
-16 32 -34 28 -38 -4 -5 1 -2 11 5 14 11 17 11 17 -2 0 -16 27 -32 49 -28 8 1
10 -2 5 -10 -5 -9 -1 -11 13 -7 13 4 27 -2 38 -15 14 -16 19 -17 26 -6 7 12 9
12 9 0 0 -11 3 -11 15 -1 13 11 14 10 8 -5 -5 -14 -3 -17 9 -13 9 4 21 1 28
-5 9 -9 11 -9 7 -1 -4 7 0 15 9 18 12 4 15 2 10 -9 -7 -19 -1 -19 18 1 15 14
16 14 16 -1 0 -9 5 -13 10 -10 6 4 7 11 4 17 -5 7 -2 8 7 2 24 -14 51 -16 43
-2 -4 7 1 5 12 -4 19 -17 21 -17 38 0 11 9 16 11 12 5 -8 -14 6 -18 18 -6 9 9
14 10 57 12 21 1 28 5 23 14 -5 7 0 6 11 -3 17 -14 18 -13 12 3 -5 13 -3 16 6
10 22 -14 36 -12 30 5 -4 10 -3 14 2 10 4 -4 14 -3 22 4 11 9 12 7 7 -8 -6
-18 -5 -17 9 1 9 11 17 16 17 11 0 -5 12 1 27 15 14 13 23 17 19 9 -5 -10 -2
-9 7 2 11 14 16 15 26 5 10 -9 11 -8 6 6 -8 19 5 23 22 6 8 -8 13 -7 18 2 5 8
4 10 -3 5 -8 -5 -10 -1 -5 10 6 16 8 15 21 -4 8 -12 20 -22 26 -22 6 0 4 5 -4
10 -13 8 -13 10 1 10 9 0 19 -9 22 -20 3 -11 10 -20 17 -20 6 0 8 6 5 13 -4 6
3 1 15 -13 14 -16 20 -19 16 -8 -3 12 -1 15 10 11 7 -3 14 -13 14 -22 0 -12 2
-13 9 -3 7 11 9 10 15 -3 3 -10 11 -13 18 -8 19 11 39 13 32 2 -3 -5 -10 -6
-16 -3 -7 4 -8 2 -4 -4 4 -6 14 -8 23 -5 10 4 14 2 10 -4 -3 -5 0 -10 8 -10 8
0 12 5 9 11 -3 6 1 3 9 -6 14 -18 33 -25 23 -10 -2 4 4 8 14 8 10 0 18 -3 17
-7 -2 -6 8 -11 16 -8 13 5 55 4 52 -1 -3 -4 7 -10 21 -13 18 -3 24 -1 20 9 -3
8 0 11 9 7 8 -3 12 -10 8 -17 -4 -7 -2 -7 7 1 9 9 19 9 33 2 12 -7 17 -7 13
-1 -3 5 1 12 9 16 8 3 17 0 21 -6 4 -7 3 -8 -4 -4 -8 5 -10 2 -6 -8 5 -13 9
-12 26 7 11 12 17 17 14 11 -4 -8 3 -11 18 -10 18 1 22 4 14 13 -7 9 -3 11 16
7 14 -2 26 0 26 6 0 5 6 10 14 10 8 0 17 6 19 13 4 9 6 9 6 0 1 -8 9 -5 21 7
12 12 26 18 32 14 7 -4 8 -3 4 4 -4 7 -1 12 8 12 8 0 27 11 41 26 14 14 30 22
35 19 6 -3 7 1 4 10 -5 11 -2 14 12 8 12 -4 15 -3 10 5 -4 7 -2 12 3 12 6 0
10 3 10 8 -3 19 2 25 11 12 8 -13 10 -12 10 3 0 12 4 16 13 11 8 -5 7 -2 -2 9
-8 10 -11 20 -7 24 3 3 6 1 6 -7 0 -10 3 -10 15 0 8 7 13 16 10 20 -3 5 0 12
6 16 7 4 9 3 6 -3 -3 -5 0 -10 7 -10 8 0 11 8 8 21 -3 12 -1 18 3 14 4 -4 14
0 21 10 9 13 9 19 1 24 -7 5 -2 8 13 8 20 0 22 2 10 10 -10 6 -11 10 -3 10 7
0 12 6 10 13 -1 6 5 11 14 11 14 -1 15 4 8 28 -7 27 -7 28 9 17 9 -7 14 -10
10 -5 -4 5 -3 16 2 25 5 10 5 23 -1 32 -6 10 -9 10 -9 2 0 -7 -5 -13 -11 -13
-6 0 -8 7 -5 16 5 12 2 15 -10 10 -10 -4 -22 1 -31 11 -9 12 -12 13 -8 3 4
-10 2 -9 -8 2 -16 20 -32 25 -21 6 4 -7 3 -8 -4 -4 -7 4 -12 13 -12 20 0 7 -7
13 -15 13 -8 0 -12 -4 -9 -9 3 -4 0 -8 -5 -8 -6 0 -11 7 -11 15 0 9 -6 12 -17
8 -12 -5 -14 -3 -8 8 7 11 5 11 -10 -1 -10 -8 -16 -10 -12 -4 4 7 0 14 -8 17
-10 4 -12 1 -9 -11 3 -10 0 -7 -8 5 -10 17 -17 20 -32 11 -15 -8 -17 -8 -11 2
6 10 3 12 -10 6 -11 -4 -26 0 -38 11 -11 10 -17 12 -13 6 4 -8 1 -13 -8 -13
-9 0 -16 6 -16 13 0 9 -2 9 -9 -1 -6 -10 -10 -9 -14 7 -3 12 0 21 6 21 7 0 5
5 -3 10 -12 8 -12 10 5 11 11 0 14 3 7 6 -10 4 -10 8 0 21 7 9 8 13 2 9 -6 -3
-11 1 -11 9 0 8 6 13 13 10 13 -5 12 12 -2 48 -5 13 -4 17 4 12 8 -5 10 -2 6
8 -3 9 -11 13 -18 9 -6 -4 -5 1 3 10 11 14 11 17 0 18 -8 0 -5 4 6 9 17 7 17
9 3 9 -23 1 -23 10 0 28 9 8 12 12 5 9 -15 -8 -27 10 -13 19 5 3 10 12 10 18
0 7 -4 6 -10 -3 -9 -13 -10 -13 -10 0 0 9 6 22 13 29 10 11 10 13 0 7 -7 -4
-13 -2 -13 3 0 20 -2 26 -11 38 -7 7 -6 14 1 18 6 3 8 10 5 15 -7 11 -37 1
-47 -14 -5 -7 -8 -7 -8 2 0 6 -7 12 -16 12 -9 0 -12 -5 -8 -12 4 -7 4 -10 -1
-6 -4 4 -14 3 -22 -4 -11 -9 -12 -7 -7 8 5 18 5 18 -9 2 -8 -10 -17 -15 -20
-11 -4 3 -14 0 -24 -8 -9 -8 -14 -9 -10 -2 4 6 3 15 -3 18 -6 4 -9 1 -8 -7 2
-7 -7 -14 -20 -16 -12 -2 -20 -8 -17 -13 3 -5 0 -6 -8 -3 -8 3 -18 0 -22 -6
-5 -8 -11 -8 -21 1 -12 10 -15 10 -12 -2 2 -8 -3 -13 -9 -11 -7 1 -13 -2 -13
-8 0 -5 -7 -6 -17 -3 -12 5 -14 3 -8 -7 6 -10 4 -12 -9 -7 -13 5 -17 3 -13 -6
3 -8 -5 -13 -25 -14 -26 -1 -27 1 -11 13 16 12 16 13 -5 7 -17 -4 -23 -2 -22
8 4 28 0 49 -10 49 -7 0 -7 -7 0 -22 11 -22 10 -22 -4 -4 -12 15 -13 23 -4 33
8 11 7 12 -6 7 -18 -7 -22 15 -6 34 7 9 7 9 -2 2 -17 -14 -25 -13 -32 6 -3 8
-2 12 4 9 6 -3 10 -4 10 0 0 3 -11 10 -25 15 -23 9 -24 13 -14 31 7 14 7 19 0
15 -13 -8 -54 31 -46 45 4 5 3 9 -2 8 -18 -3 -34 2 -29 9 3 5 -9 21 -27 38
-22 21 -29 24 -24 10z m-148 -176 c-3 -5 -11 -10 -16 -10 -6 0 -7 5 -4 10 3 6
11 10 16 10 6 0 7 -4 4 -10z m-822 -545 c-3 -9 -8 -14 -10 -11 -3 3 -2 9 2 15
9 16 15 13 8 -4z m207 -350 c14 -19 14 -19 -2 -6 -10 7 -18 18 -18 24 0 6 1 8
3 6 1 -2 9 -13 17 -24z m655 -34 c3 -5 2 -12 -3 -15 -5 -3 -9 1 -9 9 0 17 3
19 12 6z m-575 -21 c0 -5 -2 -10 -4 -10 -3 0 -8 5 -11 10 -3 6 -1 10 4 10 6 0
11 -4 11 -10z"/>
<path d="M1829 1587 c6 -8 7 -18 3 -22 -4 -5 -2 -5 5 -1 14 8 6 36 -9 36 -7 0
-6 -5 1 -13z"/>
</g>
</svg>
